<svg width="1200" height="675" viewBox="0 0 1200 675" fill="none" xmlns="http://www.w3.org/2000/svg">
  <rect width="1200" height="675" fill="#101828"/>
  <rect x="72" y="70" width="1056" height="535" rx="16" fill="#f8fafc"/>
  <rect x="112" y="112" width="976" height="76" rx="10" fill="#e2e8f0"/>
  <rect x="112" y="224" width="464" height="294" rx="12" fill="#ffffff" stroke="#cbd5e1" stroke-width="2"/>
  <rect x="624" y="224" width="464" height="294" rx="12" fill="#ffffff" stroke="#cbd5e1" stroke-width="2"/>
  <rect x="148" y="316" width="392" height="54" rx="8" fill="#dbeafe"/>
  <rect x="148" y="398" width="280" height="42" rx="8" fill="#bfdbfe"/>
  <rect x="660" y="292" width="232" height="48" rx="8" fill="#10b981"/>
  <rect x="660" y="368" width="348" height="28" rx="6" fill="#d1fae5"/>
  <rect x="660" y="420" width="290" height="28" rx="6" fill="#d1fae5"/>
  <text x="112" y="50" fill="#f8fafc" font-family="Arial, sans-serif" font-size="26" font-weight="700">Customer Inquiry Classifier</text>
  <text x="148" y="158" fill="#334155" font-family="Arial, sans-serif" font-size="24" font-weight="700">Support routing demo</text>
  <text x="148" y="270" fill="#334155" font-family="Arial, sans-serif" font-size="20">Input inquiry</text>
  <text x="660" y="270" fill="#334155" font-family="Arial, sans-serif" font-size="20">Prediction and confidence</text>
  <text x="680" y="324" fill="#ffffff" font-family="Arial, sans-serif" font-size="18">billing_queue</text>
  <text x="148" y="560" fill="#64748b" font-family="Arial, sans-serif" font-size="18">Screenshot placeholder - replace with Streamlit demo capture</text>
</svg>
